<?xml version="1.0" encoding="UTF-8" standalone="no"?>
<svg
   xmlns:dc="http://purl.org/dc/elements/1.1/"
   xmlns:cc="http://creativecommons.org/ns#"
   xmlns:rdf="http://www.w3.org/1999/02/22-rdf-syntax-ns#"
   xmlns:svg="http://www.w3.org/2000/svg"
   xmlns="http://www.w3.org/2000/svg"
   xmlns:sodipodi="http://sodipodi.sourceforge.net/DTD/sodipodi-0.dtd"
   xmlns:inkscape="http://www.inkscape.org/namespaces/inkscape"
   width="64"
   height="64"
   viewBox="0 0 16.933333 16.933334"
   version="1.1"
   id="svg8"
   inkscape:version="0.92.3 (2405546, 2018-03-11)"
   sodipodi:docname="26-Self motivation.svg"
   inkscape:export-filename="/home/wanzabuyumna/@WANZ_DESIGN/NICON STUDIO MAGANG/Style Line/Style Line/Icon 8/Icon 8.png"
   inkscape:export-xdpi="96"
   inkscape:export-ydpi="96">
  <defs
     id="defs2" />
  <sodipodi:namedview
     id="base"
     pagecolor="#ffffff"
     bordercolor="#959595"
     borderopacity="1"
     inkscape:pageopacity="0"
     inkscape:pageshadow="2"
     inkscape:zoom="7.9195959"
     inkscape:cx="39.016772"
     inkscape:cy="25.437904"
     inkscape:document-units="px"
     inkscape:current-layer="layer1"
     inkscape:document-rotation="0"
     showgrid="false"
     units="px"
     inkscape:window-width="1920"
     inkscape:window-height="1040"
     inkscape:window-x="0"
     inkscape:window-y="0"
     inkscape:window-maximized="1"
     inkscape:pagecheckerboard="0" />
  <metadata
     id="metadata5">
    <rdf:RDF>
      <cc:Work
         rdf:about="">
        <dc:format>image/svg+xml</dc:format>
        <dc:type
           rdf:resource="http://purl.org/dc/dcmitype/StillImage" />
      </cc:Work>
    </rdf:RDF>
  </metadata>
  <g
     inkscape:label="26-Self motivation"
     inkscape:groupmode="layer"
     id="layer1">
    <path
       style="color:#000000;font-style:normal;font-variant:normal;font-weight:normal;font-stretch:normal;font-size:medium;line-height:normal;font-family:sans-serif;font-variant-ligatures:normal;font-variant-position:normal;font-variant-caps:normal;font-variant-numeric:normal;font-variant-alternates:normal;font-feature-settings:normal;text-indent:0;text-align:start;text-decoration:none;text-decoration-line:none;text-decoration-style:solid;text-decoration-color:#000000;letter-spacing:normal;word-spacing:normal;text-transform:none;writing-mode:lr-tb;direction:ltr;text-orientation:mixed;dominant-baseline:auto;baseline-shift:baseline;text-anchor:start;white-space:normal;shape-padding:0;clip-rule:nonzero;display:inline;overflow:visible;visibility:visible;opacity:1;isolation:auto;mix-blend-mode:normal;color-interpolation:sRGB;color-interpolation-filters:linearRGB;solid-color:#000000;solid-opacity:1;vector-effect:none;fill:#000000;fill-opacity:1;fill-rule:nonzero;stroke:none;stroke-width:1.99999988;stroke-linecap:round;stroke-linejoin:miter;stroke-miterlimit:4;stroke-dasharray:none;stroke-dashoffset:0;stroke-opacity:1;color-rendering:auto;image-rendering:auto;shape-rendering:auto;text-rendering:auto;enable-background:accumulate"
       d="m 32,2 c -0.582615,0.011339 -1,0.4419772 -1,0.9960938 v 2 c 0,0.666444 0.500195,1.0010838 1,1.0019531 0.499842,-8.693e-4 1,-0.3356224 1,-1.0019531 v -2 C 33,2.4419772 32.582614,2.0108472 32,2 Z M 26.591797,3.5839844 C 25.687961,3.5764253 25.250963,4.6739199 25.875,5.2929688 l 1.417969,1.4101562 c 0.986645,0.9175559 2.330233,-0.4649342 1.417969,-1.4101562 L 27.292969,3.875 C 27.104748,3.6814882 26.861617,3.5839846 26.591797,3.5839844 Z m 10.816406,0 c -0.269858,0 -0.512913,0.097505 -0.701172,0.2910156 l -1.417969,1.4179688 c -0.912303,0.9452227 0.431361,2.3277129 1.417969,1.4101562 L 38.125,5.2929688 C 38.749038,4.6739201 38.312039,3.5769919 37.408203,3.5839844 Z M 16.947266,8.9980469 c -1.071534,0 -2.028574,0.5156833 -2.669922,1.3515621 L 4.5175781,20.376953 c -0.7466832,0.975723 -0.655857,2.300581 0.089844,3.171875 1.4364472,1.681626 2.8705113,3.345048 4.3222656,5.013672 -1.4389795,0.833764 -2.2007764,2.628524 -1.8417969,4.404297 l 3.1210934,16.21875 c 0.04687,0.256252 0.192001,0.483887 0.404297,0.634765 L 19,55.6875 v 5.300781 c 0.03024,1.304088 1.970898,1.304088 2,0 v -4.009765 c 0.977499,0.218834 1.692931,-1.105285 0.759766,-1.798828 L 12.097656,48.410156 9.0488281,32.583984 c -0.2294173,-1.190778 0.3708093,-2.24326 1.3945309,-2.517578 1.06424,-0.284976 2.153232,0.327699 2.451172,1.410156 l 2.31836,10.732422 c 0.07332,0.344315 0.322744,0.624934 0.65625,0.738282 L 29.542969,47.5625 28.013672,57.851562 c -0.04838,0.314081 0.05517,0.6322 0.279297,0.857422 l 2.998047,2.996094 C 31.486417,61.901614 31.743332,62 32,62 c 0.25663,0 0.513544,-0.09839 0.708984,-0.294922 l 2.998047,-2.996094 c 0.224126,-0.225259 0.327675,-0.543492 0.279297,-0.857422 l -0.572266,-3.853515 h 3.583985 c 1.304387,-0.02873 1.304387,-1.971412 0,-2 H 35.117188 L 34.457031,47.5625 48.130859,42.947266 c 0.333355,-0.113386 0.582814,-0.393778 0.65625,-0.738282 l 2.31836,-10.732422 c 0.297827,-1.082382 1.386932,-1.695359 2.451172,-1.410156 1.023798,0.274394 1.62391,1.3268 1.394531,2.517578 l -3.048828,15.826172 -9.66211,6.769532 C 41.307031,55.873231 42.022614,57.197237 43,56.978516 v 4.009765 c 0.03024,1.304051 1.971049,1.304051 2,0 V 55.6875 l 8.386719,-5.867188 c 0.212409,-0.150803 0.357204,-0.378589 0.404297,-0.634765 l 3.123046,-16.21875 c 0.359058,-1.775773 -0.404768,-3.570533 -1.84375,-4.404297 1.451757,-1.668624 2.885781,-3.332046 4.322266,-5.013672 0.745588,-0.871294 0.838329,-2.196152 0.0918,-3.171875 L 49.722656,10.349609 C 49.081346,9.5137302 48.124268,8.9980469 47.052734,8.9980469 Z m 8.671875,2.0000001 h 12.761718 l 5.001953,10.003906 H 20.617188 Z m -5.113282,12.003906 h 22.988282 l -4.134766,9.857422 C 38.138247,30.007117 35.306293,28 32,28 c -3.306255,0 -6.138209,2.007117 -7.359375,4.859375 z M 32,30 c 3.297789,0 6.001953,2.676422 6.001953,6.001953 C 38.001953,39.327522 35.286374,42 32,42 28.713663,42 25.998047,39.327522 25.998047,36.001953 25.998047,32.676422 28.702173,30 32,30 Z m -15.939453,6.666016 c 1.802607,2.030174 3.591166,4.033648 5.400391,6.05664 l -4.410157,-1.488281 z m 31.878906,0 -0.990234,4.568359 -4.410157,1.488281 c 1.809262,-2.022992 3.597783,-4.026466 5.400391,-6.05664 z M 28.638672,43.25 C 29.662546,43.727279 30.799319,44 32,44 c 1.200718,0 2.337378,-0.27291 3.361328,-0.75 l 0.56836,1.701172 -3.095704,1.044922 h -1.667968 l -3.095704,-1.044922 z"
       transform="scale(0.26458334)"
       id="path844"
       inkscape:connector-curvature="0"
       sodipodi:nodetypes="ccccccccccccccccccccccccccccccccccccccccccccccccccccccccccccccccccccccccccccccccccccccccccccccccccccccc" />
  </g>
</svg>
